<?xml version="1.0" encoding="utf-8"?>
<!-- Generator: Adobe Illustrator 16.0.0, SVG Export Plug-In . SVG Version: 6.00 Build 0)  -->
<!DOCTYPE svg PUBLIC "-//W3C//DTD SVG 1.1//EN" "http://www.w3.org/Graphics/SVG/1.1/DTD/svg11.dtd">
<svg version="1.1" id="Layer_1" xmlns="http://www.w3.org/2000/svg" xmlns:xlink="http://www.w3.org/1999/xlink" x="0px" y="0px"
	 width="114.24px" height="364.25px" viewBox="0 0 114.24 364.25" enable-background="new 0 0 114.24 364.25" xml:space="preserve">
<line fill="none" stroke="#000000" stroke-miterlimit="10" x1="21.689" y1="0" x2="21.689" y2="8.503"/>
<line fill="none" stroke="#000000" stroke-miterlimit="10" x1="0.43" y1="8.503" x2="21.689" y2="8.503"/>
<line fill="none" stroke="#000000" stroke-miterlimit="10" x1="21.689" y1="364.25" x2="21.689" y2="355.746"/>
<line fill="none" stroke="#000000" stroke-miterlimit="10" x1="21.689" y1="355.746" x2="0.43" y2="355.746"/>
<line fill="none" stroke="#000000" stroke-miterlimit="10" x1="60.668" y1="0" x2="60.668" y2="39.685"/>
<line fill="none" stroke="#000000" stroke-miterlimit="10" x1="56.709" y1="321.73" x2="56.709" y2="364.25"/>
<line fill="none" stroke="#000000" stroke-miterlimit="10" x1="-0.002" y1="39.115" x2="114.243" y2="39.115"/>
<line fill="none" stroke="#000000" stroke-miterlimit="10" x1="-0.002" y1="321.73" x2="114.243" y2="321.73"/>
<line fill="none" stroke="#000000" stroke-miterlimit="10" x1="28.795" y1="0" x2="28.795" y2="23.335"/>
<g>
	<g>
		<rect x="41.229" y="58.701" fill="none" stroke="#000000" stroke-miterlimit="10" width="70.867" height="45.354"/>
		<g>
			<circle fill="none" stroke="#000000" stroke-miterlimit="10" cx="89.719" cy="81.378" r="11.339"/>
			<circle fill="none" stroke="#000000" stroke-miterlimit="10" cx="89.719" cy="81.377" r="1.417"/>
		</g>
		<line fill="none" stroke="#000000" stroke-miterlimit="10" x1="111.971" y1="81.378" x2="89.295" y2="81.378"/>
	</g>
	<line fill="none" stroke="#000000" stroke-miterlimit="10" x1="89.718" y1="81.378" x2="89.718" y2="131.778"/>
	<g>
		<rect x="41.511" y="108.818" fill="none" stroke="#000000" stroke-miterlimit="10" width="70.868" height="45.354"/>
		<g>
			<circle fill="none" stroke="#000000" stroke-miterlimit="10" cx="90.002" cy="131.495" r="11.339"/>
			<circle fill="none" stroke="#000000" stroke-miterlimit="10" cx="90.002" cy="131.495" r="1.417"/>
		</g>
		<line fill="none" stroke="#000000" stroke-miterlimit="10" x1="112.254" y1="131.495" x2="89.578" y2="131.495"/>
	</g>
	<line fill="none" stroke="#000000" stroke-miterlimit="10" x1="90.001" y1="131.778" x2="90.001" y2="182.179"/>
	<g>
		<rect x="41.511" y="159.218" fill="none" stroke="#000000" stroke-miterlimit="10" width="70.868" height="45.338"/>
		<g>
			<path fill="none" stroke="#000000" stroke-miterlimit="10" d="M90.002,193.221c-6.264,0-11.34-5.068-11.34-11.326
				c0-6.261,5.076-11.338,11.34-11.338c6.262,0,11.338,5.077,11.338,11.338C101.34,188.152,96.264,193.221,90.002,193.221z"/>
			<circle fill="none" stroke="#000000" stroke-miterlimit="10" cx="90.002" cy="181.895" r="1.417"/>
		</g>
		<line fill="none" stroke="#000000" stroke-miterlimit="10" x1="112.254" y1="181.896" x2="89.578" y2="181.896"/>
	</g>
	<line fill="none" stroke="#000000" stroke-miterlimit="10" x1="90.001" y1="182.179" x2="90.001" y2="232.563"/>
	<g>
		<rect x="41.512" y="209.885" fill="none" stroke="#000000" stroke-miterlimit="10" width="70.867" height="45.355"/>
		<g>
			<circle fill="none" stroke="#000000" stroke-miterlimit="10" cx="90.002" cy="232.562" r="11.339"/>
			<circle fill="none" stroke="#000000" stroke-miterlimit="10" cx="90.002" cy="232.562" r="1.417"/>
		</g>
		<line fill="none" stroke="#000000" stroke-miterlimit="10" x1="112.254" y1="232.563" x2="89.578" y2="232.563"/>
	</g>
</g>
<g>
	<g>
		<g>
			<circle fill="none" stroke="#000000" stroke-miterlimit="10" cx="17.71" cy="300.341" r="8.505"/>
			<circle fill="none" stroke="#000000" stroke-miterlimit="10" cx="17.711" cy="300.341" r="1.418"/>
		</g>
		<rect x="4.245" y="283.896" fill="none" stroke="#000000" stroke-miterlimit="10" width="26.93" height="34.016"/>
		<line fill="none" stroke="#000000" stroke-miterlimit="10" x1="17.711" y1="283.333" x2="17.711" y2="300.341"/>
	</g>
	<g>
		<g>
			<circle fill="none" stroke="#000000" stroke-miterlimit="10" cx="17.709" cy="267.61" r="8.504"/>
			<circle fill="none" stroke="#000000" stroke-miterlimit="10" cx="17.709" cy="267.61" r="1.418"/>
		</g>
	</g>
</g>
<g>
	<g>
		<g>
			<circle fill="none" stroke="#000000" stroke-miterlimit="10" cx="17.637" cy="66.736" r="8.504"/>
			<circle fill="none" stroke="#000000" stroke-miterlimit="10" cx="17.637" cy="66.736" r="1.418"/>
		</g>
	</g>
	<g>
		<g>
			<circle fill="none" stroke="#000000" stroke-miterlimit="10" cx="17.776" cy="106.942" r="8.504"/>
			<circle fill="none" stroke="#000000" stroke-miterlimit="10" cx="17.776" cy="106.942" r="1.418"/>
		</g>
	</g>
	<g>
		<circle fill="none" stroke="#000000" stroke-miterlimit="10" cx="17.651" cy="86.631" r="4.96"/>
		<circle fill="none" stroke="#000000" stroke-miterlimit="10" cx="17.652" cy="86.631" r="1.417"/>
	</g>
	<circle fill="none" stroke="#000000" stroke-miterlimit="10" cx="17.707" cy="127.905" r="4.96"/>
	<circle fill="none" stroke="#000000" stroke-miterlimit="10" cx="17.763" cy="127.905" r="1.417"/>
	<circle fill="none" stroke="#000000" stroke-miterlimit="10" cx="17.693" cy="143.313" r="4.96"/>
	<circle fill="none" stroke="#000000" stroke-miterlimit="10" cx="17.749" cy="143.313" r="1.417"/>
	<circle fill="none" stroke="#000000" stroke-miterlimit="10" cx="17.679" cy="158.721" r="4.96"/>
	<circle fill="none" stroke="#000000" stroke-miterlimit="10" cx="17.735" cy="158.721" r="1.417"/>
	<circle fill="none" stroke="#000000" stroke-miterlimit="10" cx="17.665" cy="174.13" r="4.96"/>
	<circle fill="none" stroke="#000000" stroke-miterlimit="10" cx="17.721" cy="174.13" r="1.417"/>
</g>
<g>
	<g>
		<g>
			<path fill="none" stroke="#000000" stroke-miterlimit="10" d="M56.559,302.178c0-4.697,3.803-8.504,8.492-8.504
				c4.695,0,8.502,3.807,8.502,8.504c0,4.695-3.807,8.504-8.502,8.504C60.361,310.682,56.559,306.873,56.559,302.178z"/>
			<circle fill="none" stroke="#000000" stroke-miterlimit="10" cx="65.051" cy="302.178" r="1.416"/>
		</g>
		<rect x="51.6" y="276.664" fill="none" stroke="#000000" stroke-miterlimit="10" width="26.914" height="42.521"/>
		<line fill="none" stroke="#000000" stroke-miterlimit="10" x1="65.051" y1="319.186" x2="65.051" y2="302.178"/>
	</g>
	<g>
		<path fill="none" stroke="#000000" stroke-miterlimit="10" d="M70.01,268.078c0,2.74-2.221,4.961-4.959,4.961
			c-2.733,0-4.951-2.221-4.951-4.961s2.218-4.961,4.951-4.961C67.789,263.117,70.01,265.338,70.01,268.078z"/>
		<circle fill="none" stroke="#000000" stroke-miterlimit="10" cx="65.052" cy="268.078" r="1.415"/>
	</g>
</g>
<g>
	<g>
		<g>
			<circle fill="none" stroke="#000000" stroke-miterlimit="10" cx="17.71" cy="232.267" r="8.505"/>
			<circle fill="none" stroke="#000000" stroke-miterlimit="10" cx="17.711" cy="232.267" r="1.418"/>
		</g>
		<rect x="4.245" y="215.821" fill="none" stroke="#000000" stroke-miterlimit="10" width="26.93" height="34.016"/>
		<line fill="none" stroke="#000000" stroke-miterlimit="10" x1="17.711" y1="215.259" x2="17.711" y2="232.267"/>
	</g>
	<g>
		<g>
			<circle fill="none" stroke="#000000" stroke-miterlimit="10" cx="17.709" cy="199.536" r="8.504"/>
			<circle fill="none" stroke="#000000" stroke-miterlimit="10" cx="17.709" cy="199.536" r="1.418"/>
		</g>
	</g>
</g>
<g>
	<g>
		<g>
			<circle fill="none" stroke="#000000" stroke-miterlimit="10" cx="97.083" cy="302.178" r="8.504"/>
			<circle fill="none" stroke="#000000" stroke-miterlimit="10" cx="97.083" cy="302.178" r="1.418"/>
		</g>
		<rect x="83.62" y="276.664" fill="none" stroke="#000000" stroke-miterlimit="10" width="26.928" height="42.521"/>
		<line fill="none" stroke="#000000" stroke-miterlimit="10" x1="97.083" y1="319.186" x2="97.083" y2="302.178"/>
	</g>
	<g>
		<circle fill="none" stroke="#000000" stroke-miterlimit="10" cx="97.083" cy="268.078" r="4.96"/>
		<circle fill="none" stroke="#000000" stroke-miterlimit="10" cx="97.084" cy="268.078" r="1.417"/>
	</g>
</g>
</svg>
